<svg width="19" height="18" viewBox="0 0 19 18" fill="none" xmlns="http://www.w3.org/2000/svg">
<g clip-path="url(#clip0_2396_26968)">
<path d="M9.4174 1.45862C11.3985 1.45862 11.6457 1.46591 12.423 1.50237C13.1996 1.53883 13.7282 1.6606 14.1934 1.84143C14.6747 2.02664 15.0801 2.27747 15.4855 2.68216C15.8563 3.04667 16.1432 3.48759 16.3263 3.97424C16.5064 4.43872 16.6289 4.9681 16.6653 5.74466C16.6996 6.52195 16.7091 6.76914 16.7091 8.75028C16.7091 10.7314 16.7018 10.9786 16.6653 11.7559C16.6289 12.5325 16.5064 13.0611 16.3263 13.5263C16.1437 14.0132 15.8568 14.4543 15.4855 14.8184C15.1209 15.1891 14.68 15.4759 14.1934 15.6591C13.729 15.8392 13.1996 15.9617 12.423 15.9982C11.6457 16.0325 11.3985 16.042 9.4174 16.042C7.43625 16.042 7.18907 16.0347 6.41177 15.9982C5.63521 15.9617 5.10657 15.8392 4.64136 15.6591C4.15451 15.4765 3.71351 15.1895 3.34927 14.8184C2.97842 14.454 2.69152 14.013 2.50854 13.5263C2.32771 13.0618 2.20594 12.5325 2.16948 11.7559C2.13521 10.9786 2.12573 10.7314 2.12573 8.75028C2.12573 6.76914 2.13302 6.52195 2.16948 5.74466C2.20594 4.96737 2.32771 4.43945 2.50854 3.97424C2.69101 3.48729 2.97799 3.04625 3.34927 2.68216C3.71362 2.31118 4.15459 2.02425 4.64136 1.84143C5.10657 1.6606 5.63448 1.53883 6.41177 1.50237C7.18907 1.4681 7.43625 1.45862 9.4174 1.45862ZM9.4174 5.10445C8.45046 5.10445 7.52313 5.48856 6.83941 6.17229C6.15568 6.85602 5.77157 7.78335 5.77157 8.75028C5.77157 9.71722 6.15568 10.6446 6.83941 11.3283C7.52313 12.012 8.45046 12.3961 9.4174 12.3961C10.3843 12.3961 11.3117 12.012 11.9954 11.3283C12.6791 10.6446 13.0632 9.71722 13.0632 8.75028C13.0632 7.78335 12.6791 6.85602 11.9954 6.17229C11.3117 5.48856 10.3843 5.10445 9.4174 5.10445ZM14.157 4.92216C14.157 4.68043 14.061 4.44859 13.89 4.27766C13.7191 4.10673 13.4873 4.0107 13.2455 4.0107C13.0038 4.0107 12.772 4.10673 12.601 4.27766C12.4301 4.44859 12.3341 4.68043 12.3341 4.92216C12.3341 5.16389 12.4301 5.39573 12.601 5.56666C12.772 5.73759 13.0038 5.83362 13.2455 5.83362C13.4873 5.83362 13.7191 5.73759 13.89 5.56666C14.061 5.39573 14.157 5.16389 14.157 4.92216ZM9.4174 6.56278C9.99756 6.56278 10.554 6.79325 10.9642 7.20349C11.3744 7.61372 11.6049 8.17012 11.6049 8.75028C11.6049 9.33045 11.3744 9.88684 10.9642 10.2971C10.554 10.7073 9.99756 10.9378 9.4174 10.9378C8.83724 10.9378 8.28084 10.7073 7.8706 10.2971C7.46037 9.88684 7.2299 9.33045 7.2299 8.75028C7.2299 8.17012 7.46037 7.61372 7.8706 7.20349C8.28084 6.79325 8.83724 6.56278 9.4174 6.56278Z" fill="white"/>
</g>
<defs>
<clipPath id="clip0_2396_26968">
<rect width="17.5" height="17.5" fill="white" transform="translate(0.666748)"/>
</clipPath>
</defs>
</svg>
