<svg width="18" height="18" viewBox="0 0 18 18" fill="none" xmlns="http://www.w3.org/2000/svg">
<g clip-path="url(#clip0_2396_26976)">
<path d="M5.0612 3.64656C5.061 4.03334 4.90717 4.40419 4.63355 4.67755C4.35992 4.9509 3.98891 5.10436 3.60214 5.10417C3.21536 5.10397 2.84451 4.95014 2.57115 4.67652C2.2978 4.40289 2.14434 4.03188 2.14453 3.6451C2.14472 3.25833 2.29856 2.88747 2.57218 2.61412C2.84581 2.34077 3.21682 2.18731 3.60359 2.1875C3.99037 2.18769 4.36122 2.34152 4.63458 2.61515C4.90793 2.88878 5.06139 3.25979 5.0612 3.64656ZM5.10495 6.18406H2.18828V15.3132H5.10495V6.18406ZM9.71328 6.18406H6.8112V15.3132H9.68411V10.5226C9.68411 7.85385 13.1622 7.60594 13.1622 10.5226V15.3132H16.0424V9.53094C16.0424 5.03198 10.8945 5.19969 9.68411 7.40906L9.71328 6.18406Z" fill="white"/>
</g>
<defs>
<clipPath id="clip0_2396_26976">
<rect width="17.5" height="17.5" fill="white"/>
</clipPath>
</defs>
</svg>
