<svg width="18" height="18" viewBox="0 0 18 18" fill="none" xmlns="http://www.w3.org/2000/svg">
<g clip-path="url(#clip0_2396_26964)">
<path d="M16.6595 4.12369C16.1028 4.36992 15.5125 4.53164 14.908 4.60348C15.5451 4.22244 16.022 3.62276 16.2497 2.91619C15.6518 3.27202 14.9963 3.52139 14.313 3.65629C13.8541 3.16525 13.2458 2.8396 12.5827 2.72995C11.9196 2.62029 11.2388 2.73279 10.6462 3.04995C10.0537 3.36711 9.58247 3.87116 9.30592 4.48374C9.02936 5.09632 8.96294 5.78311 9.11698 6.43733C7.90445 6.37656 6.71826 6.06146 5.63542 5.5125C4.55257 4.96354 3.59728 4.19299 2.83156 3.25087C2.56052 3.71641 2.41809 4.24562 2.41885 4.78431C2.41885 5.8416 2.95698 6.77567 3.7751 7.32254C3.29094 7.3073 2.81744 7.17655 2.39406 6.94119V6.9791C2.39421 7.68326 2.63787 8.3657 3.08374 8.91071C3.52961 9.45572 4.15025 9.82976 4.84042 9.96942C4.39097 10.0912 3.9197 10.1092 3.46229 10.0219C3.65688 10.628 4.03615 11.1581 4.54699 11.5379C5.05784 11.9178 5.67468 12.1283 6.31115 12.1401C5.67858 12.6369 4.9543 13.0042 4.1797 13.2209C3.40511 13.4376 2.59541 13.4995 1.79688 13.4031C3.19082 14.2995 4.81351 14.7754 6.47083 14.7739C12.0803 14.7739 15.1479 10.1269 15.1479 6.09681C15.1479 5.96556 15.1443 5.83285 15.1384 5.70306C15.7355 5.27152 16.2509 4.73693 16.6602 4.12442L16.6595 4.12369Z" fill="white"/>
</g>
<defs>
<clipPath id="clip0_2396_26964">
<rect width="17.5" height="17.5" fill="white" transform="translate(0.5)"/>
</clipPath>
</defs>
</svg>
